#!OML:ASF H:\ManfredETheater\Project 1\Capture day 1\Session 1\subject.ASF
:FULLY-SPECIFIED
:DEGREES
122
root 3.08734 14.5997 -16.3715 -200.894 -39.9727 -165.584
lowerback 30.7714 1.19435 6.00698
upperback 6.76136 2.50077 3.62767
thorax -9.09316 0.512293 -0.199914
lowerneck -7.88734 -11.2178 -10.7266
upperneck 9.53847 -14.7847 7.91398
head 5.54487 -7.19131 2.94934
rclavicle -1.86858e-014 9.34288e-015
rhumerus 7.31746 -0.886479 -21.4774
rradius 72.8934
rwrist -14.2349
rhand -22.0482 -7.11893
rfingers 7.12502
rthumb 4.36222 -37.054
lclavicle -1.86858e-014 9.34288e-015
lhumerus -37.8485 16.1771 51.9227
lradius 104.497
lwrist 22.7178
lhand -29.9275 11.4549
lfingers 7.12502
lthumb -3.24744 41.4099
rfemur -43.8007 -12.8656 16.168
rtibia 80.3321
rfoot -4.69738 7.17064
rtoes -28.6873
lfemur -50.201 -5.39122 -14.1414
ltibia 76.3634
lfoot -10.6462 -11.1372
ltoes 16.6027
123
root 3.12091 14.6273 -16.6008 -200.497 -40.372 -166.167
lowerback 31.0818 1.49789 5.76656
upperback 6.81376 2.83276 3.71803
thorax -9.18883 0.664638 -0.0852071
lowerneck -7.43865 -11.447 -11.1653
upperneck 9.25644 -15.0989 8.13708
head 5.46316 -7.35886 3.07518
rclavicle 2.84759e-014 8.34896e-015
rhumerus 6.37401 0.0892126 -23.5239
rradius 71.7043
rwrist -12.7244
rhand -21.4636 -6.87563
rfingers 7.12502
rthumb 4.92672 -36.7984
lclavicle 2.84759e-014 8.34896e-015
lhumerus -36.1068 17.1427 48.4508
lradius 104.99
lwrist 23.3362
lhand -30.1553 12.299
lfingers 7.12502
lthumb -3.46748 42.2506
rfemur -43.7694 -13.131 15.0882
rtibia 79.296
rfoot -4.92525 4.96674
rtoes -28.5006
lfemur -49.8329 -5.16752 -14.2595
ltibia 76.7246
lfoot -11.3742 -10.9533
ltoes 16.3134
124
root 3.15557 14.656 -16.8298 -200.093 -40.7969 -166.705
lowerback 31.3418 1.7598 5.56633
upperback 6.86457 3.12009 3.80323
thorax -9.26333 0.796653 0.0161192
lowerneck -7.04216 -11.6672 -11.6053
upperneck 9.00127 -15.3998 8.35509
head 5.39909 -7.51867 3.19744
rclavicle -4.27139e-014 4.08006e-014
rhumerus 5.30051 0.77648 -25.7162
rradius 70.7039
rwrist -11.2915
rhand -20.9784 -6.64016
rfingers 7.12502
rthumb 5.39517 -36.5515
lclavicle -4.27139e-014 4.08006e-014
lhumerus -34.3021 18.2847 44.9577
lradius 105.173
lwrist 24.1482
lhand -30.4251 13.1367
lfingers 7.12502
lthumb -3.728 43.0838
rfemur -43.537 -13.2397 13.9913
rtibia 77.6475
rfoot -5.28605 2.17019
rtoes -28.454
lfemur -49.4798 -4.7577 -14.3819
ltibia 77.0615
lfoot -12.1218 -10.8764
ltoes 16.4186
125
root 3.19086 14.6846 -17.0588 -199.726 -41.2362 -167.129
lowerback 31.5364 1.97241 5.45309
upperback 6.9158 3.36806 3.90213
thorax -9.30396 0.909737 0.0977916
lowerneck -6.68982 -11.8786 -12.0332
upperneck 8.75862 -15.6867 8.55628
head 5.34453 -7.6709 3.31141
rclavicle -1.47349e-014 -4.7112e-014
rhumerus 4.10838 1.21313 -28.0103
rradius 69.8821
rwrist -10.0707
rhand -20.6766 -6.45239
rfingers 7.12502
rthumb 5.68659 -36.3561
lclavicle -1.47349e-014 -4.7112e-014
lhumerus -32.4677 19.5951 41.4945
lradius 105.074
lwrist 25.0961
lhand -30.702 13.8782
lfingers 7.12502
lthumb -3.99538 43.8204
rfemur -43.1004 -13.1561 12.9284
rtibia 75.4168
rfoot -5.64061 -0.874655
rtoes -28.4507
lfemur -49.1532 -4.2339 -14.4176
ltibia 77.3821
lfoot -12.9188 -10.974
ltoes 16.8486
126
root 3.22633 14.7119 -17.2882 -199.411 -41.7 -167.415
lowerback 31.6673 2.12299 5.43024
upperback 6.95997 3.56432 4.01916
thorax -9.31954 0.998204 0.16824
lowerneck -6.37501 -12.0716 -12.4477
upperneck 8.52837 -15.9468 8.73795
head 5.29636 -7.80946 3.41792
rclavicle -6.16232e-015 -3.3197e-014
rhumerus 2.83551 1.46281 -30.3728
rradius 69.2037
rwrist -9.14343
rhand -20.6051 -6.3445
rfingers 7.12502
rthumb 5.75564 -36.2463
lclavicle -6.16232e-015 -3.3197e-014
lhumerus -30.6593 21.073 38.0882
lradius 104.708
lwrist 26.0579
lhand -31.0269 14.523
lfingers 7.12502
lthumb -4.30907 44.4592
rfemur -42.4668 -12.8468 11.8997
rtibia 72.6704
rfoot -5.88478 -3.76908
rtoes -28.4427
lfemur -48.8653 -3.68158 -14.3273
ltibia 77.6914
lfoot -13.7325 -11.183
ltoes 17.4791
127
root 3.26168 14.735 -17.5192 -199.163 -42.1902 -167.548
lowerback 31.7365 2.20971 5.49516
upperback 6.99545 3.70693 4.16225
thorax -9.31304 1.06107 0.239271
lowerneck -6.10463 -12.244 -12.8365
upperneck 8.31158 -16.175 8.88368
head 5.25266 -7.93216 3.51045
rclavicle 1.90833e-014 -4.07509e-014
rhumerus 1.50823 1.56994 -32.765
rradius 68.6313
rwrist -8.52457
rhand -20.7641 -6.33853
rfingers 7.12502
rthumb 5.60216 -36.2445
lclavicle 1.90833e-014 -4.07509e-014
lhumerus -28.9176 22.7065 34.7635
lradius 104.097
lwrist 26.8935
lhand -31.2654 14.9695
lfingers 7.12502
lthumb -4.53944 44.9009
rfemur -41.6584 -12.3026 10.9132
rtibia 69.5086
rfoot -5.96377 -6.23599
rtoes -28.6812
lfemur -48.6378 -3.16942 -14.0766
ltibia 78.0115
lfoot -14.5709 -11.5595
ltoes 18.1591
128
root 3.29582 14.7511 -17.752 -198.927 -42.7487 -167.615
lowerback 32.0119 2.20893 5.65672
upperback 6.58887 3.80075 4.29988
thorax -9.12535 1.08154 0.251959
lowerneck -5.85894 -12.4021 -13.205
upperneck 8.09745 -16.3816 9.00227
head 5.20868 -8.04423 3.59274
rclavicle 5.82439e-014 8.74653e-015
rhumerus 0.126473 1.55208 -35.1523
rradius 68.1247
rwrist -8.14589
rhand -21.1108 -6.42515
rfingers 7.12502
rthumb 5.26733 -36.3397
lclavicle 5.82439e-014 8.74653e-015
lhumerus -27.2521 24.4513 31.5497
lradius 103.252
lwrist 27.4634
lhand -31.4338 15.2391
lfingers 7.12502
lthumb -4.70202 45.167
rfemur -40.7064 -11.5645 9.8812
rtibia 66.06
rfoot -5.77215 -8.10127
rtoes -29.364
lfemur -48.489 -2.78157 -13.7455
ltibia 78.3653
lfoot -15.4167 -12.0394
ltoes 18.8054
129
root 3.32933 14.7585 -17.9884 -198.751 -43.365 -167.583
lowerback 32.0038 2.18623 5.791
upperback 6.59641 3.83107 4.47531
thorax -9.11583 1.09194 0.356087
lowerneck -5.64386 -12.5474 -13.5645
upperneck 7.89099 -16.5679 9.10058
head 5.1683 -8.14605 3.66775
rclavicle 2.62396e-014 -6.44062e-014
rhumerus -1.29968 1.40214 -37.5045
rradius 67.6453
rwrist -7.88289
rhand -21.5673 -6.56669
rfingers 7.12502
rthumb 4.82662 -36.4917
lclavicle 2.62396e-014 -6.44062e-014
lhumerus -25.653 26.2853 28.4885
lradius 102.177
lwrist 27.6421
lhand -31.4132 15.2594
lfingers 7.12502
lthumb -4.68217 45.1876
rfemur -39.6335 -10.6226 8.84519
rtibia 62.4994
rfoot -5.20236 -9.18415
rtoes -30.6354
lfemur -48.4135 -2.54079 -13.2917
ltibia 78.7845
lfoot -16.2802 -12.6316
ltoes 19.2854
130
root 3.36247 14.7533 -18.2297 -198.626 -44.0298 -167.486
lowerback 31.9888 2.13064 5.92751
upperback 6.59019 3.82389 4.67138
thorax -9.12113 1.08465 0.494153
lowerneck -5.44756 -12.6826 -13.922
upperneck 7.68925 -16.7401 9.19626
head 5.1313 -8.24038 3.74182
rclavicle 4.8901e-014 -1.19271e-014
rhumerus -2.76823 1.11038 -39.8014
rradius 67.1629
rwrist -7.62026
rhand -22.0507 -6.71567
rfingers 7.12502
rthumb 4.35979 -36.6508
lclavicle 4.8901e-014 -1.19271e-014
lhumerus -24.1008 28.181 25.598
lradius 100.871
lwrist 27.3544
lhand -31.1697 15.0233
lfingers 7.12502
lthumb -4.44705 44.9567
rfemur -38.5254 -9.54404 7.82617
rtibia 59.0644
rfoot -4.25555 -9.42327
rtoes -32.5218
lfemur -48.4213 -2.44693 -12.7361
ltibia 79.2968
lfoot -17.1557 -13.3076
ltoes 19.593
131
root 3.3959 14.7344 -18.4755 -198.581 -44.7292 -167.312
lowerback 31.9997 2.0464 6.07566
upperback 6.56678 3.78944 4.88731
thorax -9.157 1.063 0.656369
lowerneck -5.26543 -12.8106 -14.2736
upperneck 7.49466 -16.9038 9.29467
head 5.09836 -8.32971 3.81558
rclavicle 2.98177e-015 -7.95139e-016
rhumerus -4.28172 0.660517 -42.0349
rradius 66.6621
rwrist -7.26727
rhand -22.5096 -6.8471
rfingers 7.12502
rthumb 3.91671 -36.7908
lclavicle 2.98177e-015 -7.95139e-016
lhumerus -22.5958 30.0268 22.8438
lradius 99.3978
lwrist 26.6878
lhand -30.8188 14.6003
lfingers 7.12502
lthumb -4.10817 44.5404
rfemur -37.4627 -8.47855 6.91594
rtibia 56.0872
rfoot -3.19509 -8.90858
rtoes -34.6272
lfemur -48.5039 -2.48667 -12.0707
ltibia 79.9073
lfoot -18.0402 -14.0457
ltoes 19.7024
132
root 3.43026 14.7061 -18.723 -198.641 -45.4402 -167.053
lowerback 32.0572 1.9446 6.2419
upperback 6.53184 3.74354 5.12397
thorax -9.22465 1.03318 0.834824
lowerneck -5.09269 -12.9372 -14.622
upperneck 7.30741 -17.0683 9.40838
head 5.07119 -8.41833 3.8923
rclavicle -1.78906e-014 3.18055e-015
rhumerus -5.84045 0.0246804 -44.1901
rradius 66.1377
rwrist -6.77037
rhand -22.9063 -6.93886
rfingers 7.12502
rthumb 3.53362 -36.8893
lclavicle -1.78906e-014 3.18055e-015
lhumerus -21.0951 31.8149 20.2624
lradius 97.7731
lwrist 25.6851
lhand -30.3796 13.9904
lfingers 7.12502
lthumb -3.68404 43.9383
rfemur -36.582 -7.58035 6.21452
rtibia 53.8683
rfoot -2.17615 -7.90738
rtoes -36.2917
lfemur -48.6142 -2.63734 -11.2985
ltibia 80.5817
lfoot -18.9251 -14.8085
ltoes 19.6283
